<svg width="88" height="88" viewBox="0 0 88 88" fill="none" xmlns="http://www.w3.org/2000/svg">
<g filter="url(#filter0_bd_360_738)">
<rect x="14" y="12" width="60" height="60" rx="8" fill="url(#paint0_linear_360_738)" shape-rendering="crispEdges"/>
<rect x="15" y="13" width="58" height="58" rx="7" stroke="white" stroke-width="2" shape-rendering="crispEdges"/>
</g>
<g clip-path="url(#clip0_360_738)">
<rect x="28" y="27" width="32.9437" height="30" fill="url(#paint1_linear_360_738)"/>
<path fill-rule="evenodd" clip-rule="evenodd" d="M30.8525 32.5308H33.319V43.8231C33.0992 43.8231 32.8767 43.8043 32.6515 43.8043C31.0957 43.7872 29.5579 44.1381 28.1635 44.8284L28 44.9169V35.3807C28.0021 34.6251 28.3034 33.901 28.838 33.3669C29.3726 32.8329 30.0969 32.5322 30.8525 32.5308ZM36.8928 53.9786C37.0235 54.1877 37.094 54.4289 37.0965 54.6756C37.0965 55.9625 35.1046 57.008 32.6515 57.008C30.1984 57.008 28.2064 55.9544 28.2064 54.6676C28.2104 54.4215 28.2798 54.1809 28.4075 53.9705C28.9759 54.9196 30.6595 55.6059 32.6515 55.6059C34.6434 55.6059 36.3298 54.9196 36.8928 53.9705V53.9786ZM49.6702 53.1501C49.8302 53.4069 49.9165 53.7028 49.9196 54.0054C49.9196 55.5818 47.4799 56.8606 44.4719 56.8606C41.4638 56.8606 39.0241 55.5818 39.0241 54.0054C39.0279 53.7029 39.1141 53.4072 39.2735 53.1501C39.9678 54.311 42.0322 55.1528 44.4719 55.1528C46.9115 55.1528 48.9812 54.311 49.6702 53.1501ZM49.6702 49.6971C49.8302 49.9539 49.9165 50.2497 49.9196 50.5523C49.9196 52.1287 47.4799 53.4102 44.4719 53.4102C41.4638 53.4102 39.0241 52.1206 39.0241 50.5442C39.0283 50.2418 39.1145 49.9463 39.2735 49.689C39.9678 50.8606 42.0322 51.6917 44.4719 51.6917C46.9115 51.6917 48.9812 50.8606 49.6702 49.689V49.6971ZM46.4531 42.504L46.3887 43.2118L43.7078 42.9786C43.9295 43.2617 44.0861 43.5904 44.1662 43.941L43.5174 43.8901C43.4563 43.6647 43.3585 43.4509 43.2279 43.2574C43.0951 43.0416 42.9022 42.8692 42.6729 42.7614L42.7239 42.1877L46.4397 42.5094L46.4531 42.504ZM44.4853 41.3941C46.9571 41.3941 48.9625 42.1823 48.9625 43.1501C48.9625 44.118 46.9571 44.9062 44.4853 44.9062C42.0134 44.9062 40.008 44.1019 40.008 43.1501C40.008 42.1984 42.0134 41.3941 44.4853 41.3941ZM44.4853 40.8097C47.4933 40.8097 49.933 42.0912 49.933 43.6676C49.933 45.244 47.4933 46.5228 44.4853 46.5228C41.4772 46.5228 39.0241 45.2306 39.0241 43.6595C39.0241 42.0885 41.4638 40.8016 44.4719 40.8016L44.4853 40.8097ZM49.689 46.3378C49.8364 46.5863 49.9159 46.8692 49.9196 47.1582C49.9196 48.7346 47.4799 50.0134 44.4719 50.0134C41.4638 50.0134 39.0241 48.7346 39.0241 47.1582C39.0275 46.8685 39.109 46.585 39.2601 46.3378C39.9303 47.5147 42.0107 48.3753 44.4772 48.3753C46.9437 48.3753 49.0349 47.5147 49.6944 46.3378H49.689ZM60.5362 53.9705C60.6646 54.1806 60.7341 54.4214 60.7373 54.6676C60.7373 55.9544 58.748 57 56.2922 57C53.8365 57 51.8606 55.9544 51.8606 54.6676C51.8642 54.4211 51.9346 54.1801 52.0643 53.9705C52.63 54.9196 54.3137 55.6059 56.3056 55.6059C58.2976 55.6059 59.9839 54.9196 60.5496 53.9705H60.5362ZM57.8981 48.0992L57.8472 48.6783L55.6649 48.4879C55.8454 48.7191 55.9727 48.9874 56.0375 49.2735L55.5013 49.2279C55.4529 49.044 55.3731 48.8699 55.2654 48.7131C55.157 48.5363 54.9996 48.3948 54.8123 48.3056L54.8552 47.8365L57.8874 48.1046L57.8981 48.0992ZM56.2895 47.193C58.3056 47.193 59.9437 47.8365 59.9437 48.6273C59.9437 49.4182 58.3083 50.0563 56.2922 50.0563C54.2761 50.0563 52.6381 49.4156 52.6381 48.6273C52.6381 47.8391 54.2761 47.193 56.2922 47.193H56.2895ZM56.2895 46.7185C58.7453 46.7185 60.7346 47.7614 60.7346 49.0483C60.7346 50.3351 58.7453 51.3807 56.2895 51.3807C53.8338 51.3807 51.8606 50.3244 51.8606 49.0483C51.8606 47.7721 53.8526 46.7185 56.3056 46.7185H56.2895ZM60.5496 51.2359C60.671 51.4385 60.7358 51.67 60.7373 51.9062C60.7373 53.1904 58.748 54.2359 56.2922 54.2359C53.8365 54.2359 51.8606 53.1904 51.8606 51.9062C51.8617 51.6699 51.9266 51.4384 52.0483 51.2359C52.5845 52.1957 54.2949 52.8981 56.3056 52.8981C58.3164 52.8981 60.0161 52.1957 60.563 51.2359H60.5496ZM34.2574 48.0992L34.2038 48.6783L32.0214 48.4879C32.202 48.7191 32.3292 48.9874 32.3941 49.2735L31.8579 49.2279C31.8133 49.0458 31.738 48.8727 31.6354 48.7158C31.5269 48.539 31.3696 48.3975 31.1823 48.3083L31.2172 47.8365L34.252 48.1046L34.2574 48.0992ZM32.6488 47.193C34.6649 47.193 36.3029 47.8365 36.3029 48.6273C36.3029 49.4182 34.6676 50.0563 32.6515 50.0563C30.6354 50.0563 28.9973 49.4156 28.9973 48.6273C28.9973 47.8391 30.6354 47.193 32.6515 47.193H32.6488ZM32.6488 46.7185C35.1019 46.7185 37.0938 47.7614 37.0938 49.0483C37.0938 50.3351 35.1019 51.3807 32.6488 51.3807C30.1957 51.3807 28.2064 50.3244 28.2064 49.0483C28.2064 47.7721 30.1984 46.7185 32.6515 46.7185H32.6488ZM36.9088 51.2359C37.0293 51.4389 37.0941 51.6701 37.0965 51.9062C37.0965 53.1904 35.1046 54.2359 32.6515 54.2359C30.1984 54.2359 28.2064 53.1904 28.2064 51.9062C28.2076 51.6699 28.2724 51.4384 28.3941 51.2359C28.9303 52.1957 30.6381 52.8981 32.6515 52.8981C34.6649 52.8981 36.3619 52.2011 36.9088 51.2359ZM41.5174 27H47.1957C48.049 27 48.8673 27.3389 49.4706 27.9423C50.0739 28.5456 50.4129 29.3639 50.4129 30.2172V31.933H48.3593V30.2172C48.3585 29.9187 48.2397 29.6327 48.0287 29.4217C47.8177 29.2107 47.5317 29.0919 47.2332 29.0912H41.4799C41.1815 29.0919 40.8955 29.2107 40.6845 29.4217C40.4735 29.6327 40.3546 29.9187 40.3539 30.2172V31.9383H38.3083V30.2172C38.3083 29.3639 38.6473 28.5456 39.2506 27.9423C39.8539 27.3389 40.6722 27 41.5255 27H41.5174ZM35.0134 32.5308H53.5496V44.1582C53.2815 44.2306 53.0134 44.311 52.7748 44.4021C52.8148 44.1566 52.8346 43.9083 52.8338 43.6595C52.8338 41.7051 51.6247 40.0912 49.6676 39.067C48.0531 38.2691 46.2726 37.8649 44.4719 37.8874C42.6713 37.864 40.8908 38.2674 39.2761 39.0643C37.3217 40.0885 36.1099 41.7024 36.1099 43.6568C36.11 43.9057 36.1306 44.154 36.1716 44.3995C35.7928 44.2634 35.406 44.1506 35.0134 44.0617V32.5335V32.5308ZM55.244 32.5308H58.0912C58.847 32.533 59.5714 32.8342 60.1059 33.3687C60.6404 33.9032 60.9416 34.6275 60.9437 35.3834V44.9169L60.7802 44.8284C59.3858 44.1381 57.848 43.7872 56.2922 43.8043C55.9422 43.8036 55.5923 43.8206 55.244 43.8552V32.5308Z" fill="#FB9644"/>
</g>
<rect x="28.5" y="27.5" width="31.9437" height="29" stroke="white"/>
<defs>
<filter id="filter0_bd_360_738" x="-6" y="-8" width="100" height="100" filterUnits="userSpaceOnUse" color-interpolation-filters="sRGB">
<feFlood flood-opacity="0" result="BackgroundImageFix"/>
<feGaussianBlur in="BackgroundImage" stdDeviation="10"/>
<feComposite in2="SourceAlpha" operator="in" result="effect1_backgroundBlur_360_738"/>
<feColorMatrix in="SourceAlpha" type="matrix" values="0 0 0 0 0 0 0 0 0 0 0 0 0 0 0 0 0 0 127 0" result="hardAlpha"/>
<feOffset dy="2"/>
<feGaussianBlur stdDeviation="7"/>
<feComposite in2="hardAlpha" operator="out"/>
<feColorMatrix type="matrix" values="0 0 0 0 0 0 0 0 0 0 0 0 0 0 0 0 0 0 0.05 0"/>
<feBlend mode="normal" in2="effect1_backgroundBlur_360_738" result="effect2_dropShadow_360_738"/>
<feBlend mode="normal" in="SourceGraphic" in2="effect2_dropShadow_360_738" result="shape"/>
</filter>
<linearGradient id="paint0_linear_360_738" x1="14" y1="12" x2="71.4116" y2="72.0231" gradientUnits="userSpaceOnUse">
<stop stop-color="white" stop-opacity="0.31"/>
<stop offset="1" stop-color="white" stop-opacity="0.81"/>
</linearGradient>
<linearGradient id="paint1_linear_360_738" x1="28" y1="27" x2="56.4624" y2="59.677" gradientUnits="userSpaceOnUse">
<stop stop-color="white" stop-opacity="0.31"/>
<stop offset="1" stop-color="white" stop-opacity="0.81"/>
</linearGradient>
<clipPath id="clip0_360_738">
<rect x="28" y="27" width="32.9437" height="30" fill="white"/>
</clipPath>
</defs>
</svg>
