<svg width="50" height="50" viewBox="0 0 50 50" fill="none" xmlns="http://www.w3.org/2000/svg">
<circle cx="25" cy="25" r="24.5" stroke="#DADADA"/>
<path d="M31.25 23.75C30.8358 23.75 30.5 24.0858 30.5 24.5C30.5 24.9142 30.8358 25.25 31.25 25.25V23.75ZM31.2608 25.25C31.675 25.25 32.0108 24.9142 32.0108 24.5C32.0108 24.0858 31.675 23.75 31.2608 23.75V25.25ZM18.25 23.75C17.8358 23.75 17.5 24.0858 17.5 24.5C17.5 24.9142 17.8358 25.25 18.25 25.25V23.75ZM18.2608 25.25C18.675 25.25 19.0108 24.9142 19.0108 24.5C19.0108 24.0858 18.675 23.75 18.2608 23.75V25.25ZM27.25 24.5C27.25 25.8807 26.1307 27 24.75 27V28.5C26.9591 28.5 28.75 26.7091 28.75 24.5H27.25ZM24.75 27C23.3693 27 22.25 25.8807 22.25 24.5H20.75C20.75 26.7091 22.5409 28.5 24.75 28.5V27ZM22.25 24.5C22.25 23.1193 23.3693 22 24.75 22V20.5C22.5409 20.5 20.75 22.2909 20.75 24.5H22.25ZM24.75 22C26.1307 22 27.25 23.1193 27.25 24.5H28.75C28.75 22.2909 26.9591 20.5 24.75 20.5V22ZM17.1667 18.75H32.3333V17.25H17.1667V18.75ZM32.3333 18.75C33.1157 18.75 33.75 19.3843 33.75 20.1667H35.25C35.25 18.5558 33.9442 17.25 32.3333 17.25V18.75ZM33.75 20.1667V28.8333H35.25V20.1667H33.75ZM33.75 28.8333C33.75 29.6157 33.1157 30.25 32.3333 30.25V31.75C33.9442 31.75 35.25 30.4442 35.25 28.8333H33.75ZM32.3333 30.25H17.1667V31.75H32.3333V30.25ZM17.1667 30.25C16.3843 30.25 15.75 29.6157 15.75 28.8333H14.25C14.25 30.4442 15.5558 31.75 17.1667 31.75V30.25ZM15.75 28.8333V20.1667H14.25V28.8333H15.75ZM15.75 20.1667C15.75 19.3843 16.3843 18.75 17.1667 18.75V17.25C15.5558 17.25 14.25 18.5558 14.25 20.1667H15.75ZM31.25 25.25H31.2608V23.75H31.25V25.25ZM18.25 25.25H18.2608V23.75H18.25V25.25Z" fill="#FB9644"/>
</svg>
