<svg width="80" height="80" viewBox="0 0 80 80" fill="none" xmlns="http://www.w3.org/2000/svg">
<rect width="80" height="80" fill="#FFF0E1"/>
<path d="M33.75 46.25L46.25 33.75" stroke="#163663" stroke-width="3" stroke-linecap="round" stroke-linejoin="round"/>
<path d="M34.7917 35.8333C35.367 35.8333 35.8333 35.367 35.8333 34.7917C35.8333 34.2164 35.367 33.75 34.7917 33.75C34.2164 33.75 33.75 34.2164 33.75 34.7917C33.75 35.367 34.2164 35.8333 34.7917 35.8333Z" fill="#163663" stroke="#163663" stroke-width="3" stroke-linecap="round" stroke-linejoin="round"/>
<path d="M45.2077 46.2501C45.783 46.2501 46.2493 45.7837 46.2493 45.2084C46.2493 44.6331 45.783 44.1667 45.2077 44.1667C44.6324 44.1667 44.166 44.6331 44.166 45.2084C44.166 45.7837 44.6324 46.2501 45.2077 46.2501Z" fill="#163663" stroke="#163663" stroke-width="3" stroke-linecap="round" stroke-linejoin="round"/>
<path d="M24.4167 30C24.4167 28.7844 24.8995 27.6186 25.7591 26.7591C26.6186 25.8995 27.7844 25.4167 29 25.4167H31.0833C32.2935 25.416 33.4543 24.9367 34.3125 24.0833L35.7708 22.625C36.1968 22.1967 36.7032 21.8567 37.2609 21.6248C37.8187 21.3928 38.4168 21.2734 39.0208 21.2734C39.6249 21.2734 40.223 21.3928 40.7807 21.6248C41.3385 21.8567 41.8449 22.1967 42.2708 22.625L43.7292 24.0833C44.5873 24.9367 45.7481 25.416 46.9583 25.4167H49.0417C50.2572 25.4167 51.423 25.8995 52.2826 26.7591C53.1421 27.6186 53.625 28.7844 53.625 30V32.0833C53.6257 33.2935 54.105 34.4543 54.9583 35.3125L56.4167 36.7708C56.845 37.1968 57.1849 37.7032 57.4168 38.2609C57.6488 38.8187 57.7682 39.4168 57.7682 40.0208C57.7682 40.6249 57.6488 41.223 57.4168 41.7807C57.1849 42.3385 56.845 42.8449 56.4167 43.2708L54.9583 44.7292C54.105 45.5873 53.6257 46.7481 53.625 47.9583V50.0417C53.625 51.2572 53.1421 52.423 52.2826 53.2826C51.423 54.1421 50.2572 54.625 49.0417 54.625H46.9583C45.7481 54.6257 44.5873 55.105 43.7292 55.9583L42.2708 57.4167C41.8449 57.845 41.3385 58.1849 40.7807 58.4168C40.223 58.6488 39.6249 58.7682 39.0208 58.7682C38.4168 58.7682 37.8187 58.6488 37.2609 58.4168C36.7032 58.1849 36.1968 57.845 35.7708 57.4167L34.3125 55.9583C33.4543 55.105 32.2935 54.6257 31.0833 54.625H29C27.7844 54.625 26.6186 54.1421 25.7591 53.2826C24.8995 52.423 24.4167 51.2572 24.4167 50.0417V47.9583C24.416 46.7481 23.9367 45.5873 23.0833 44.7292L21.625 43.2708C21.1967 42.8449 20.8567 42.3385 20.6248 41.7807C20.3928 41.223 20.2734 40.6249 20.2734 40.0208C20.2734 39.4168 20.3928 38.8187 20.6248 38.2609C20.8567 37.7032 21.1967 37.1968 21.625 36.7708L23.0833 35.3125C23.9367 34.4543 24.416 33.2935 24.4167 32.0833V30" stroke="#FB9644" stroke-width="3" stroke-linecap="round" stroke-linejoin="round"/>
</svg>
