<svg width="50" height="50" viewBox="0 0 50 50" fill="none" xmlns="http://www.w3.org/2000/svg">
<path d="M24 43.75C34.3553 43.75 42.75 35.3553 42.75 25C42.75 14.6447 34.3553 6.25 24 6.25C13.6447 6.25 5.25 14.6447 5.25 25C5.25 35.3553 13.6447 43.75 24 43.75Z" stroke="#FB9644" stroke-width="4" stroke-linecap="round" stroke-linejoin="round"/>
<path d="M24.3802 27.3127C24.4783 27.3127 24.5756 27.3111 24.672 27.3079L28.5739 33.5554C28.574 33.5556 28.5741 33.5558 28.5742 33.556C28.7159 33.7846 28.8923 33.9646 29.1079 34.0815L29.1078 34.0816L29.1158 34.0856C29.3374 34.1957 29.5767 34.25 29.83 34.25C30.1094 34.25 30.3638 34.1957 30.5828 34.0748C30.8035 33.9529 30.974 33.7711 31.0951 33.5397L31.0951 33.5397L31.0969 33.5362C31.3446 33.0439 31.2847 32.5282 30.9697 32.0238L30.9696 32.0237L27.5763 26.595C27.5771 26.5945 27.578 26.5941 27.5789 26.5937C28.5135 26.1132 29.2444 25.4451 29.7645 24.5897C30.3011 23.7325 30.567 22.7566 30.567 21.6697C30.567 20.5094 30.3028 19.4806 29.7666 18.5918C29.2479 17.7064 28.5181 17.0144 27.5833 16.5175C26.6454 16.0036 25.5754 15.75 24.3802 15.75H20.2059C19.8042 15.75 19.455 15.8883 19.1747 16.1654C18.8877 16.4332 18.75 16.7861 18.75 17.1985V32.8015C18.75 33.2036 18.8907 33.5525 19.1716 33.8316C19.4524 34.1107 19.8027 34.25 20.2059 34.25C20.6195 34.25 20.9738 34.1138 21.2432 33.8286C21.5221 33.5499 21.6618 33.2022 21.6618 32.8015V27.3127H24.3802ZM24.3802 24.6002H21.6618V18.4625H24.3802C25.0565 18.4625 25.6407 18.6011 26.1399 18.8705C26.6416 19.1411 27.0332 19.5165 27.319 19.9993C27.6029 20.4789 27.7479 21.0332 27.7479 21.6697C27.7479 22.2394 27.6055 22.7454 27.3235 23.1945C27.0403 23.63 26.6505 23.9768 26.1474 24.2345C25.6464 24.4758 25.0594 24.6002 24.3802 24.6002Z" fill="#163663" stroke="#163663" stroke-width="0.5"/>
</svg>
