<svg width="141" height="48" viewBox="0 0 141 48" fill="none" xmlns="http://www.w3.org/2000/svg">
<path d="M21.8468 16.9976C23.8963 16.9976 25.3603 17.5195 26.2387 18.5634C27.1298 19.6072 27.5753 21.3322 27.5753 23.7382V34.1068C27.5753 34.7688 27.2444 35.0998 26.5824 35.0998C25.9077 35.0998 25.5704 34.7688 25.5704 34.1068V23.7382C25.5704 22.0578 25.2839 20.8484 24.7111 20.1101C24.1382 19.3717 23.1835 19.0026 21.8468 19.0026H20.2619C18.5942 19.0026 17.3976 19.3717 16.672 20.1101C15.9591 20.8484 15.6027 22.0578 15.6027 23.7382V34.1068C15.6027 34.7688 15.2717 35.0998 14.6097 35.0998C13.935 35.0998 13.5977 34.7688 13.5977 34.1068V23.7382C13.5977 22.0578 13.3112 20.8484 12.7384 20.1101C12.1655 19.3717 11.2108 19.0026 9.87412 19.0026H8.28922C6.62157 19.0026 5.42494 19.3717 4.69932 20.1101C3.98644 20.8484 3.62999 22.0578 3.62999 23.7382V34.1068C3.62999 34.7688 3.29901 35.0998 2.63704 35.0998C1.96235 35.0998 1.625 34.7688 1.625 34.1068V18.0287C1.625 17.3667 1.96235 17.0357 2.63704 17.0357C3.29901 17.0357 3.62999 17.3667 3.62999 18.0287V19.5181C4.19012 18.6143 4.85209 17.9714 5.61589 17.5895C6.39243 17.1949 7.37265 16.9976 8.55655 16.9976H9.87412C11.2108 16.9976 12.2801 17.2331 13.0821 17.7041C13.8968 18.1624 14.5397 18.9198 15.0107 19.9764C15.5708 18.9198 16.2583 18.1624 17.073 17.7041C17.8877 17.2331 18.9507 16.9976 20.2619 16.9976H21.8468Z" fill="#FB9644"/>
<path d="M37.7692 42.7188C36.1015 42.7188 34.8667 42.3178 34.0647 41.5158C33.2755 40.7138 32.8808 39.4662 32.8808 37.7731C32.8808 37.1111 33.2118 36.7802 33.8738 36.7802C34.5485 36.7802 34.8858 37.1111 34.8858 37.7731C34.8858 38.9188 35.0895 39.6954 35.4969 40.1027C35.9042 40.5101 36.6617 40.7138 37.7692 40.7138H44.3761C45.4964 40.7138 46.2602 40.5101 46.6675 40.1027C47.0749 39.6954 47.2786 38.9188 47.2786 37.7731V32.5219C46.553 33.4767 45.6428 34.145 44.548 34.5269C43.4532 34.9088 42.1738 35.0998 40.7098 35.0998H39.6405C37.2982 35.0998 35.586 34.5588 34.5039 33.4767C33.4218 32.3946 32.8808 30.6952 32.8808 28.3783V18.0096C32.8808 17.3349 33.2118 16.9976 33.8738 16.9976C34.5485 16.9976 34.8858 17.3349 34.8858 18.0096V28.3783C34.8858 30.1478 35.2295 31.3762 35.917 32.0637C36.6171 32.7511 37.8583 33.0948 39.6405 33.0948H40.7098C42.9376 33.0948 44.5862 32.7065 45.6555 31.93C46.7376 31.1407 47.2786 29.9568 47.2786 28.3783V18.0096C47.2786 17.3349 47.6096 16.9976 48.2715 16.9976C48.9462 16.9976 49.2836 17.3349 49.2836 18.0096V37.7731C49.2836 39.4662 48.8826 40.7138 48.0806 41.5158C47.2913 42.3178 46.0565 42.7188 44.3761 42.7188H37.7692Z" fill="#FB9644"/>
<path d="M56.8972 35.0808C55.8279 35.0808 55.2932 34.5461 55.2932 33.4768V10.7917C55.2932 9.72241 55.8279 9.18774 56.8972 9.18774C57.9665 9.18774 58.5012 9.72241 58.5012 10.7917V31.8728H69.0799C70.1492 31.8728 70.6839 32.4075 70.6839 33.4768C70.6839 34.5461 70.1492 35.0808 69.0799 35.0808H56.8972Z" fill="#163663"/>
<path d="M81.3778 35.0808C78.8445 35.0808 76.9604 34.4698 75.7256 33.2477C74.5035 32.0256 73.8925 30.1542 73.8925 27.6337V23.2036C73.8925 20.6449 74.5035 18.7608 75.7256 17.5514C76.9604 16.3293 78.8445 15.7183 81.3778 15.7183H84.5094C87.0554 15.7183 88.9395 16.3293 90.1616 17.5514C91.3837 18.7735 91.9947 20.6576 91.9947 23.2036V27.5955C91.9947 30.1288 91.3837 32.0128 90.1616 33.2477C88.9395 34.4698 87.0554 35.0808 84.5094 35.0808H81.3778ZM77.1005 27.6337C77.1005 29.2759 77.3996 30.3961 77.998 30.9944C78.5963 31.58 79.7229 31.8728 81.3778 31.8728H84.5094C86.1771 31.8728 87.3037 31.5737 87.8893 30.9753C88.4876 30.377 88.7867 29.2504 88.7867 27.5955V23.2036C88.7867 21.536 88.4876 20.4093 87.8893 19.8238C87.3037 19.2254 86.1771 18.9263 84.5094 18.9263H81.3778C80.2703 18.9263 79.4046 19.0536 78.7809 19.3082C78.1698 19.5501 77.737 19.9829 77.4824 20.6067C77.2278 21.2177 77.1005 22.0834 77.1005 23.2036V27.6337Z" fill="#163663"/>
<path d="M103.826 35.0808C101.687 35.0808 100.096 34.5589 99.0519 33.515C98.008 32.4711 97.4861 30.8799 97.4861 28.7412C97.4861 26.6025 98.0016 25.0113 99.0328 23.9674C100.077 22.9235 101.674 22.4016 103.826 22.4016H111.903C111.827 21.0649 111.476 20.1547 110.853 19.671C110.229 19.1745 109.16 18.9263 107.645 18.9263H105.43C104.157 18.9263 103.208 19.0154 102.584 19.1936C101.961 19.3591 101.522 19.6646 101.267 20.1102C101.038 20.6448 100.802 21.014 100.56 21.2177C100.319 21.4214 99.9557 21.5232 99.472 21.5232C98.9373 21.5232 98.5172 21.3768 98.2117 21.084C97.9062 20.7785 97.8171 20.3775 97.9444 19.881C98.3263 18.4425 99.1219 17.3923 100.331 16.7303C101.553 16.0556 103.253 15.7183 105.43 15.7183H107.645C110.191 15.7183 112.075 16.3293 113.297 17.5514C114.519 18.7735 115.13 20.6576 115.13 23.2036V33.4768C115.13 34.5461 114.595 35.0808 113.526 35.0808C112.457 35.0808 111.922 34.5461 111.922 33.4768V32.6175C110.56 34.2597 108.574 35.0808 105.964 35.0808H103.826ZM103.826 31.8728H105.964C106.906 31.8728 107.791 31.7901 108.619 31.6246C109.446 31.4464 110.153 31.1281 110.738 30.6698C111.336 30.2115 111.731 29.5559 111.922 28.703V25.6096H103.826C102.565 25.6096 101.725 25.8196 101.305 26.2397C100.898 26.6598 100.694 27.4937 100.694 28.7412C100.694 30.0015 100.898 30.8417 101.305 31.2618C101.725 31.6691 102.565 31.8728 103.826 31.8728Z" fill="#163663"/>
<path d="M123.165 35.0808C122.096 35.0808 121.561 34.5461 121.561 33.4768V17.3223C121.561 16.253 122.096 15.7183 123.165 15.7183C124.234 15.7183 124.769 16.253 124.769 17.3223V17.9524C126.118 16.463 128.104 15.7183 130.727 15.7183H131.796C134.342 15.7183 136.226 16.3293 137.448 17.5514C138.67 18.7735 139.281 20.6576 139.281 23.2036V33.4768C139.281 34.5461 138.747 35.0808 137.677 35.0808C136.608 35.0808 136.073 34.5461 136.073 33.4768V23.2036C136.073 21.536 135.768 20.4093 135.157 19.8238C134.558 19.2254 133.438 18.9263 131.796 18.9263H130.727C129.199 18.9263 127.869 19.1045 126.736 19.461C125.603 19.8047 124.947 20.3521 124.769 21.1031V33.4768C124.769 34.5461 124.234 35.0808 123.165 35.0808Z" fill="#163663"/>
<path d="M106.752 47.2311C106.752 47.027 106.815 46.8554 106.941 46.7164C107.071 46.573 107.258 46.5013 107.501 46.5013C107.744 46.5013 107.929 46.573 108.055 46.7164C108.185 46.8554 108.251 47.027 108.251 47.2311C108.251 47.431 108.185 47.6004 108.055 47.7394C107.929 47.8784 107.744 47.9479 107.501 47.9479C107.258 47.9479 107.071 47.8784 106.941 47.7394C106.815 47.6004 106.752 47.431 106.752 47.2311Z" fill="#163663"/>
<path d="M113.072 47.0096C113.359 47.0096 113.624 46.9509 113.867 46.8336C114.111 46.7164 114.311 46.5556 114.467 46.3515C114.623 46.1429 114.712 45.9062 114.734 45.6412H115.881C115.859 46.0582 115.718 46.447 115.457 46.8076C115.201 47.1638 114.864 47.4527 114.447 47.6742C114.03 47.8914 113.572 48 113.072 48C112.543 48 112.08 47.9066 111.685 47.7198C111.294 47.533 110.968 47.2767 110.707 46.9509C110.451 46.6251 110.258 46.2515 110.127 45.8302C110.001 45.4044 109.938 44.9548 109.938 44.4813V44.2077C109.938 43.7342 110.001 43.2867 110.127 42.8653C110.258 42.4396 110.451 42.0639 110.707 41.7381C110.968 41.4123 111.294 41.156 111.685 40.9692C112.08 40.7824 112.543 40.689 113.072 40.689C113.624 40.689 114.106 40.8019 114.519 41.0278C114.932 41.2493 115.255 41.5534 115.49 41.9401C115.729 42.3223 115.859 42.7567 115.881 43.2433H114.734C114.712 42.9522 114.63 42.6894 114.486 42.4548C114.347 42.2202 114.156 42.0335 113.913 41.8944C113.674 41.7511 113.394 41.6794 113.072 41.6794C112.703 41.6794 112.393 41.7533 112.141 41.901C111.893 42.0443 111.695 42.2398 111.548 42.4874C111.404 42.7307 111.3 43.0022 111.235 43.3019C111.174 43.5973 111.144 43.8992 111.144 44.2077V44.4813C111.144 44.7898 111.174 45.0938 111.235 45.3936C111.296 45.6933 111.398 45.9648 111.541 46.2081C111.689 46.4514 111.887 46.6468 112.134 46.7945C112.386 46.9379 112.699 47.0096 113.072 47.0096Z" fill="#163663"/>
<path d="M116.917 44.4227V44.2728C116.917 43.7646 116.991 43.2932 117.139 42.8588C117.286 42.4201 117.499 42.04 117.777 41.7185C118.055 41.3927 118.392 41.1407 118.787 40.9626C119.182 40.7802 119.626 40.689 120.116 40.689C120.612 40.689 121.057 40.7802 121.452 40.9626C121.852 41.1407 122.191 41.3927 122.469 41.7185C122.751 42.04 122.966 42.4201 123.114 42.8588C123.261 43.2932 123.335 43.7646 123.335 44.2728V44.4227C123.335 44.9309 123.261 45.4023 123.114 45.8367C122.966 46.2711 122.751 46.6512 122.469 46.977C122.191 47.2985 121.854 47.5504 121.459 47.7329C121.068 47.911 120.625 48 120.129 48C119.634 48 119.189 47.911 118.794 47.7329C118.398 47.5504 118.059 47.2985 117.777 46.977C117.499 46.6512 117.286 46.2711 117.139 45.8367C116.991 45.4023 116.917 44.9309 116.917 44.4227ZM118.122 44.2728V44.4227C118.122 44.7746 118.164 45.1069 118.246 45.4196C118.329 45.7281 118.453 46.0018 118.618 46.2407C118.787 46.4796 118.998 46.6686 119.25 46.8076C119.502 46.9422 119.795 47.0096 120.129 47.0096C120.46 47.0096 120.748 46.9422 120.996 46.8076C121.248 46.6686 121.457 46.4796 121.622 46.2407C121.787 46.0018 121.91 45.7281 121.993 45.4196C122.08 45.1069 122.123 44.7746 122.123 44.4227V44.2728C122.123 43.9253 122.08 43.5973 121.993 43.2889C121.91 42.9761 121.785 42.7003 121.615 42.4613C121.45 42.2181 121.241 42.0269 120.99 41.8879C120.742 41.7489 120.451 41.6794 120.116 41.6794C119.786 41.6794 119.495 41.7489 119.243 41.8879C118.996 42.0269 118.787 42.2181 118.618 42.4613C118.453 42.7003 118.329 42.9761 118.246 43.2889C118.164 43.5973 118.122 43.9253 118.122 44.2728Z" fill="#163663"/>
<path d="M124.867 47.2311C124.867 47.027 124.93 46.8554 125.056 46.7164C125.186 46.573 125.373 46.5013 125.616 46.5013C125.859 46.5013 126.044 46.573 126.17 46.7164C126.3 46.8554 126.365 47.027 126.365 47.2311C126.365 47.431 126.3 47.6004 126.17 47.7394C126.044 47.8784 125.859 47.9479 125.616 47.9479C125.373 47.9479 125.186 47.8784 125.056 47.7394C124.93 47.6004 124.867 47.431 124.867 47.2311Z" fill="#163663"/>
<path d="M133.618 46.8793V47.8697H128.49V46.8793H133.618ZM133.429 41.6729L128.763 47.8697H128.027V46.9835L132.66 40.8193H133.429V41.6729ZM132.894 40.8193V41.8162H128.079V40.8193H132.894Z" fill="#163663"/>
<path d="M139.143 46.6642V43.0348C139.143 42.7567 139.087 42.5156 138.974 42.3115C138.865 42.103 138.7 41.9422 138.479 41.8293C138.257 41.7163 137.984 41.6599 137.658 41.6599C137.354 41.6599 137.086 41.712 136.856 41.8162C136.63 41.9205 136.452 42.0573 136.322 42.2268C136.196 42.3962 136.133 42.5786 136.133 42.7741H134.927C134.927 42.5222 134.993 42.2724 135.123 42.0248C135.253 41.7772 135.44 41.5534 135.683 41.3536C135.931 41.1494 136.226 40.9887 136.57 40.8714C136.917 40.7498 137.304 40.689 137.729 40.689C138.242 40.689 138.694 40.7758 139.085 40.9496C139.48 41.1234 139.788 41.3862 140.01 41.7381C140.236 42.0856 140.349 42.5222 140.349 43.0478V46.3319C140.349 46.5665 140.368 46.8163 140.408 47.0813C140.451 47.3462 140.514 47.5743 140.596 47.7654V47.8697H139.339C139.278 47.7307 139.23 47.5461 139.196 47.3158C139.161 47.0813 139.143 46.8641 139.143 46.6642ZM139.352 43.5951L139.365 44.4422H138.146C137.803 44.4422 137.497 44.4705 137.228 44.5269C136.958 44.5791 136.732 44.6594 136.55 44.768C136.368 44.8766 136.229 45.0135 136.133 45.1786C136.037 45.3393 135.99 45.5283 135.99 45.7455C135.99 45.967 136.04 46.169 136.139 46.3515C136.239 46.5339 136.389 46.6794 136.589 46.788C136.793 46.8923 137.043 46.9444 137.338 46.9444C137.708 46.9444 138.033 46.8662 138.316 46.7098C138.598 46.5535 138.822 46.3623 138.987 46.1364C139.156 45.9105 139.248 45.6912 139.261 45.4783L139.775 46.0582C139.745 46.2407 139.663 46.4427 139.528 46.6642C139.393 46.8858 139.213 47.0986 138.987 47.3028C138.765 47.5026 138.5 47.6699 138.192 47.8045C137.888 47.9349 137.545 48 137.162 48C136.685 48 136.265 47.9066 135.905 47.7198C135.549 47.533 135.271 47.2833 135.071 46.9705C134.875 46.6534 134.778 46.2993 134.778 45.9084C134.778 45.5304 134.851 45.1981 134.999 44.9114C135.147 44.6203 135.36 44.3792 135.638 44.1881C135.916 43.9926 136.25 43.8449 136.641 43.745C137.032 43.6451 137.469 43.5951 137.951 43.5951H139.352Z" fill="#163663"/>
<path fill-rule="evenodd" clip-rule="evenodd" d="M49.4658 8.025C41.4165 2.86985 33.1178 1.07622 25.5779 1.11407C14.8128 1.16811 5.59467 4.95564 0.858395 8.02346C0.600648 8.1904 0.256363 8.1168 0.0894137 7.85905C-0.0775361 7.60131 -0.00393041 7.25702 0.253817 7.09007C8.51079 1.7418 30.0172 -5.7514 50.0655 7.08852C50.3241 7.25414 50.3995 7.59805 50.2339 7.85665C50.0683 8.11525 49.7244 8.19063 49.4658 8.025Z" fill="#FB9644"/>
</svg>
