<svg width="140" height="48" viewBox="0 0 140 48" fill="none" xmlns="http://www.w3.org/2000/svg">
<path d="M21.8468 16.9976C23.8963 16.9976 25.3603 17.5195 26.2387 18.5634C27.1298 19.6072 27.5753 21.3322 27.5753 23.7382V34.1068C27.5753 34.7688 27.2444 35.0998 26.5824 35.0998C25.9077 35.0998 25.5704 34.7688 25.5704 34.1068V23.7382C25.5704 22.0578 25.2839 20.8484 24.7111 20.1101C24.1382 19.3717 23.1835 19.0026 21.8468 19.0026H20.2619C18.5942 19.0026 17.3976 19.3717 16.672 20.1101C15.9591 20.8484 15.6027 22.0578 15.6027 23.7382V34.1068C15.6027 34.7688 15.2717 35.0998 14.6097 35.0998C13.935 35.0998 13.5977 34.7688 13.5977 34.1068V23.7382C13.5977 22.0578 13.3112 20.8484 12.7384 20.1101C12.1655 19.3717 11.2108 19.0026 9.87412 19.0026H8.28922C6.62157 19.0026 5.42494 19.3717 4.69932 20.1101C3.98644 20.8484 3.62999 22.0578 3.62999 23.7382V34.1068C3.62999 34.7688 3.29901 35.0998 2.63704 35.0998C1.96235 35.0998 1.625 34.7688 1.625 34.1068V18.0287C1.625 17.3667 1.96235 17.0357 2.63704 17.0357C3.29901 17.0357 3.62999 17.3667 3.62999 18.0287V19.5181C4.19012 18.6143 4.85209 17.9714 5.61589 17.5895C6.39243 17.1949 7.37265 16.9976 8.55655 16.9976H9.87412C11.2108 16.9976 12.2801 17.2331 13.0821 17.7041C13.8968 18.1624 14.5397 18.9198 15.0107 19.9764C15.5708 18.9198 16.2583 18.1624 17.073 17.7041C17.8877 17.2331 18.9507 16.9976 20.2619 16.9976H21.8468Z" fill="#FB9644"/>
<path d="M37.7692 42.7188C36.1015 42.7188 34.8667 42.3178 34.0647 41.5158C33.2755 40.7138 32.8808 39.4662 32.8808 37.7731C32.8808 37.1111 33.2118 36.7802 33.8738 36.7802C34.5485 36.7802 34.8858 37.1111 34.8858 37.7731C34.8858 38.9188 35.0895 39.6954 35.4969 40.1027C35.9042 40.5101 36.6617 40.7138 37.7692 40.7138H44.3761C45.4964 40.7138 46.2602 40.5101 46.6675 40.1027C47.0749 39.6954 47.2786 38.9188 47.2786 37.7731V32.5219C46.553 33.4767 45.6428 34.145 44.548 34.5269C43.4532 34.9088 42.1738 35.0998 40.7098 35.0998H39.6405C37.2982 35.0998 35.586 34.5588 34.5039 33.4767C33.4218 32.3946 32.8808 30.6952 32.8808 28.3783V18.0096C32.8808 17.3349 33.2118 16.9976 33.8738 16.9976C34.5485 16.9976 34.8858 17.3349 34.8858 18.0096V28.3783C34.8858 30.1478 35.2295 31.3762 35.917 32.0637C36.6171 32.7511 37.8583 33.0948 39.6405 33.0948H40.7098C42.9376 33.0948 44.5862 32.7065 45.6555 31.93C46.7376 31.1407 47.2786 29.9568 47.2786 28.3783V18.0096C47.2786 17.3349 47.6096 16.9976 48.2715 16.9976C48.9462 16.9976 49.2836 17.3349 49.2836 18.0096V37.7731C49.2836 39.4662 48.8826 40.7138 48.0806 41.5158C47.2913 42.3178 46.0565 42.7188 44.3761 42.7188H37.7692Z" fill="#FB9644"/>
<path d="M55.8972 35.0808C54.8279 35.0808 54.2932 34.5461 54.2932 33.4768V10.7917C54.2932 9.72241 54.8279 9.18774 55.8972 9.18774C56.9665 9.18774 57.5012 9.72241 57.5012 10.7917V31.8728H68.0799C69.1492 31.8728 69.6839 32.4075 69.6839 33.4768C69.6839 34.5461 69.1492 35.0808 68.0799 35.0808H55.8972Z" fill="white"/>
<path d="M80.3778 35.0808C77.8445 35.0808 75.9604 34.4698 74.7256 33.2477C73.5035 32.0256 72.8925 30.1542 72.8925 27.6337V23.2036C72.8925 20.6449 73.5035 18.7608 74.7256 17.5514C75.9604 16.3293 77.8445 15.7183 80.3778 15.7183H83.5094C86.0554 15.7183 87.9395 16.3293 89.1616 17.5514C90.3837 18.7735 90.9947 20.6576 90.9947 23.2036V27.5955C90.9947 30.1288 90.3837 32.0128 89.1616 33.2477C87.9395 34.4698 86.0554 35.0808 83.5094 35.0808H80.3778ZM76.1005 27.6337C76.1005 29.2759 76.3996 30.3961 76.998 30.9944C77.5963 31.58 78.7229 31.8728 80.3778 31.8728H83.5094C85.1771 31.8728 86.3037 31.5737 86.8893 30.9753C87.4876 30.377 87.7867 29.2504 87.7867 27.5955V23.2036C87.7867 21.536 87.4876 20.4093 86.8893 19.8238C86.3037 19.2254 85.1771 18.9263 83.5094 18.9263H80.3778C79.2703 18.9263 78.4046 19.0536 77.7809 19.3082C77.1698 19.5501 76.737 19.9829 76.4824 20.6067C76.2278 21.2177 76.1005 22.0834 76.1005 23.2036V27.6337Z" fill="white"/>
<path d="M102.826 35.0808C100.687 35.0808 99.0957 34.5589 98.0519 33.515C97.008 32.4711 96.4861 30.8799 96.4861 28.7412C96.4861 26.6025 97.0016 25.0113 98.0328 23.9674C99.0767 22.9235 100.674 22.4016 102.826 22.4016H110.903C110.827 21.0649 110.476 20.1547 109.853 19.671C109.229 19.1745 108.16 18.9263 106.645 18.9263H104.43C103.157 18.9263 102.208 19.0154 101.584 19.1936C100.961 19.3591 100.522 19.6646 100.267 20.1102C100.038 20.6448 99.8023 21.014 99.5604 21.2177C99.3185 21.4214 98.9557 21.5232 98.472 21.5232C97.9373 21.5232 97.5172 21.3768 97.2117 21.084C96.9062 20.7785 96.8171 20.3775 96.9444 19.881C97.3263 18.4425 98.1219 17.3923 99.3313 16.7303C100.553 16.0556 102.253 15.7183 104.43 15.7183H106.645C109.191 15.7183 111.075 16.3293 112.297 17.5514C113.519 18.7735 114.13 20.6576 114.13 23.2036V33.4768C114.13 34.5461 113.595 35.0808 112.526 35.0808C111.457 35.0808 110.922 34.5461 110.922 33.4768V32.6175C109.56 34.2597 107.574 35.0808 104.964 35.0808H102.826ZM102.826 31.8728H104.964C105.906 31.8728 106.791 31.7901 107.619 31.6246C108.446 31.4464 109.153 31.1281 109.738 30.6698C110.336 30.2115 110.731 29.5559 110.922 28.703V25.6096H102.826C101.565 25.6096 100.725 25.8196 100.305 26.2397C99.8977 26.6598 99.6941 27.4937 99.6941 28.7412C99.6941 30.0015 99.8977 30.8417 100.305 31.2618C100.725 31.6691 101.565 31.8728 102.826 31.8728Z" fill="white"/>
<path d="M122.165 35.0808C121.096 35.0808 120.561 34.5461 120.561 33.4768V17.3223C120.561 16.253 121.096 15.7183 122.165 15.7183C123.234 15.7183 123.769 16.253 123.769 17.3223V17.9524C125.118 16.463 127.104 15.7183 129.727 15.7183H130.796C133.342 15.7183 135.226 16.3293 136.448 17.5514C137.67 18.7735 138.281 20.6576 138.281 23.2036V33.4768C138.281 34.5461 137.747 35.0808 136.677 35.0808C135.608 35.0808 135.073 34.5461 135.073 33.4768V23.2036C135.073 21.536 134.768 20.4093 134.157 19.8238C133.558 19.2254 132.438 18.9263 130.796 18.9263H129.727C128.199 18.9263 126.869 19.1045 125.736 19.461C124.603 19.8047 123.947 20.3521 123.769 21.1031V33.4768C123.769 34.5461 123.234 35.0808 122.165 35.0808Z" fill="white"/>
<path d="M105.752 47.2311C105.752 47.027 105.815 46.8554 105.941 46.7164C106.071 46.573 106.258 46.5013 106.501 46.5013C106.744 46.5013 106.929 46.573 107.055 46.7164C107.185 46.8554 107.251 47.027 107.251 47.2311C107.251 47.431 107.185 47.6004 107.055 47.7394C106.929 47.8784 106.744 47.9479 106.501 47.9479C106.258 47.9479 106.071 47.8784 105.941 47.7394C105.815 47.6004 105.752 47.431 105.752 47.2311Z" fill="white"/>
<path d="M112.072 47.0096C112.359 47.0096 112.624 46.9509 112.867 46.8336C113.111 46.7164 113.311 46.5556 113.467 46.3515C113.623 46.1429 113.712 45.9062 113.734 45.6412H114.881C114.859 46.0582 114.718 46.447 114.457 46.8076C114.201 47.1638 113.864 47.4527 113.447 47.6742C113.03 47.8914 112.572 48 112.072 48C111.543 48 111.08 47.9066 110.685 47.7198C110.294 47.533 109.968 47.2767 109.707 46.9509C109.451 46.6251 109.258 46.2515 109.127 45.8302C109.001 45.4044 108.938 44.9548 108.938 44.4813V44.2077C108.938 43.7342 109.001 43.2867 109.127 42.8653C109.258 42.4396 109.451 42.0639 109.707 41.7381C109.968 41.4123 110.294 41.156 110.685 40.9692C111.08 40.7824 111.543 40.689 112.072 40.689C112.624 40.689 113.106 40.8019 113.519 41.0278C113.932 41.2493 114.255 41.5534 114.49 41.9401C114.729 42.3223 114.859 42.7567 114.881 43.2433H113.734C113.712 42.9522 113.63 42.6894 113.486 42.4548C113.347 42.2202 113.156 42.0335 112.913 41.8944C112.674 41.7511 112.394 41.6794 112.072 41.6794C111.703 41.6794 111.393 41.7533 111.141 41.901C110.893 42.0443 110.695 42.2398 110.548 42.4874C110.404 42.7307 110.3 43.0022 110.235 43.3019C110.174 43.5973 110.144 43.8992 110.144 44.2077V44.4813C110.144 44.7898 110.174 45.0938 110.235 45.3936C110.296 45.6933 110.398 45.9648 110.541 46.2081C110.689 46.4514 110.887 46.6468 111.134 46.7945C111.386 46.9379 111.699 47.0096 112.072 47.0096Z" fill="white"/>
<path d="M115.917 44.4227V44.2728C115.917 43.7646 115.991 43.2932 116.139 42.8588C116.286 42.4201 116.499 42.04 116.777 41.7185C117.055 41.3927 117.392 41.1407 117.787 40.9626C118.182 40.7802 118.626 40.689 119.116 40.689C119.612 40.689 120.057 40.7802 120.452 40.9626C120.852 41.1407 121.191 41.3927 121.469 41.7185C121.751 42.04 121.966 42.4201 122.114 42.8588C122.261 43.2932 122.335 43.7646 122.335 44.2728V44.4227C122.335 44.9309 122.261 45.4023 122.114 45.8367C121.966 46.2711 121.751 46.6512 121.469 46.977C121.191 47.2985 120.854 47.5504 120.459 47.7329C120.068 47.911 119.625 48 119.129 48C118.634 48 118.189 47.911 117.794 47.7329C117.398 47.5504 117.059 47.2985 116.777 46.977C116.499 46.6512 116.286 46.2711 116.139 45.8367C115.991 45.4023 115.917 44.9309 115.917 44.4227ZM117.122 44.2728V44.4227C117.122 44.7746 117.164 45.1069 117.246 45.4196C117.329 45.7281 117.453 46.0018 117.618 46.2407C117.787 46.4796 117.998 46.6686 118.25 46.8076C118.502 46.9422 118.795 47.0096 119.129 47.0096C119.46 47.0096 119.748 46.9422 119.996 46.8076C120.248 46.6686 120.457 46.4796 120.622 46.2407C120.787 46.0018 120.91 45.7281 120.993 45.4196C121.08 45.1069 121.123 44.7746 121.123 44.4227V44.2728C121.123 43.9253 121.08 43.5973 120.993 43.2889C120.91 42.9761 120.785 42.7003 120.615 42.4613C120.45 42.2181 120.241 42.0269 119.99 41.8879C119.742 41.7489 119.451 41.6794 119.116 41.6794C118.786 41.6794 118.495 41.7489 118.243 41.8879C117.996 42.0269 117.787 42.2181 117.618 42.4613C117.453 42.7003 117.329 42.9761 117.246 43.2889C117.164 43.5973 117.122 43.9253 117.122 44.2728Z" fill="white"/>
<path d="M123.867 47.2311C123.867 47.027 123.93 46.8554 124.056 46.7164C124.186 46.573 124.373 46.5013 124.616 46.5013C124.859 46.5013 125.044 46.573 125.17 46.7164C125.3 46.8554 125.365 47.027 125.365 47.2311C125.365 47.431 125.3 47.6004 125.17 47.7394C125.044 47.8784 124.859 47.9479 124.616 47.9479C124.373 47.9479 124.186 47.8784 124.056 47.7394C123.93 47.6004 123.867 47.431 123.867 47.2311Z" fill="white"/>
<path d="M132.618 46.8793V47.8697H127.49V46.8793H132.618ZM132.429 41.6729L127.763 47.8697H127.027V46.9835L131.66 40.8193H132.429V41.6729ZM131.894 40.8193V41.8162H127.079V40.8193H131.894Z" fill="white"/>
<path d="M138.143 46.6642V43.0348C138.143 42.7567 138.087 42.5156 137.974 42.3115C137.865 42.103 137.7 41.9422 137.479 41.8293C137.257 41.7163 136.984 41.6599 136.658 41.6599C136.354 41.6599 136.086 41.712 135.856 41.8162C135.63 41.9205 135.452 42.0573 135.322 42.2268C135.196 42.3962 135.133 42.5786 135.133 42.7741H133.927C133.927 42.5222 133.993 42.2724 134.123 42.0248C134.253 41.7772 134.44 41.5534 134.683 41.3536C134.931 41.1494 135.226 40.9887 135.57 40.8714C135.917 40.7498 136.304 40.689 136.729 40.689C137.242 40.689 137.694 40.7758 138.085 40.9496C138.48 41.1234 138.788 41.3862 139.01 41.7381C139.236 42.0856 139.349 42.5222 139.349 43.0478V46.3319C139.349 46.5665 139.368 46.8163 139.408 47.0813C139.451 47.3462 139.514 47.5743 139.596 47.7654V47.8697H138.339C138.278 47.7307 138.23 47.5461 138.196 47.3158C138.161 47.0813 138.143 46.8641 138.143 46.6642ZM138.352 43.5951L138.365 44.4422H137.146C136.803 44.4422 136.497 44.4705 136.228 44.5269C135.958 44.5791 135.732 44.6594 135.55 44.768C135.368 44.8766 135.229 45.0135 135.133 45.1786C135.037 45.3393 134.99 45.5283 134.99 45.7455C134.99 45.967 135.04 46.169 135.139 46.3515C135.239 46.5339 135.389 46.6794 135.589 46.788C135.793 46.8923 136.043 46.9444 136.338 46.9444C136.708 46.9444 137.033 46.8662 137.316 46.7098C137.598 46.5535 137.822 46.3623 137.987 46.1364C138.156 45.9105 138.248 45.6912 138.261 45.4783L138.775 46.0582C138.745 46.2407 138.663 46.4427 138.528 46.6642C138.393 46.8858 138.213 47.0986 137.987 47.3028C137.765 47.5026 137.5 47.6699 137.192 47.8045C136.888 47.9349 136.545 48 136.162 48C135.685 48 135.265 47.9066 134.905 47.7198C134.549 47.533 134.271 47.2833 134.071 46.9705C133.875 46.6534 133.778 46.2993 133.778 45.9084C133.778 45.5304 133.851 45.1981 133.999 44.9114C134.147 44.6203 134.36 44.3792 134.638 44.1881C134.916 43.9926 135.25 43.8449 135.641 43.745C136.032 43.6451 136.469 43.5951 136.951 43.5951H138.352Z" fill="white"/>
<path fill-rule="evenodd" clip-rule="evenodd" d="M49.4658 8.025C41.4165 2.86985 33.1178 1.07622 25.5779 1.11407C14.8128 1.16811 5.59467 4.95564 0.858395 8.02346C0.600648 8.1904 0.256363 8.1168 0.0894137 7.85905C-0.0775361 7.60131 -0.00393041 7.25702 0.253817 7.09007C8.51079 1.7418 30.0172 -5.7514 50.0655 7.08852C50.3241 7.25414 50.3995 7.59805 50.2339 7.85665C50.0683 8.11525 49.7244 8.19063 49.4658 8.025Z" fill="#FB9644"/>
</svg>
