<svg width="50" height="50" viewBox="0 0 50 50" fill="none" xmlns="http://www.w3.org/2000/svg">
<path d="M18 25H30.5" stroke="#163663" stroke-width="4" stroke-linecap="round" stroke-linejoin="round"/>
<path d="M18 31H30.5" stroke="#163663" stroke-width="4" stroke-linecap="round" stroke-linejoin="round"/>
<path d="M9.9375 7.8125H38.0625C38.4769 7.8125 38.8743 7.97712 39.1674 8.27015C39.4604 8.56317 39.625 8.9606 39.625 9.375V39.0625C39.625 40.3057 39.1311 41.498 38.2521 42.3771C37.373 43.2561 36.1807 43.75 34.9375 43.75H13.0625C11.8193 43.75 10.627 43.2561 9.74794 42.3771C8.86886 41.498 8.375 40.3057 8.375 39.0625V9.375C8.375 8.9606 8.53962 8.56317 8.83265 8.27015C9.12567 7.97712 9.5231 7.8125 9.9375 7.8125V7.8125Z" stroke="#FB9644" stroke-width="4" stroke-linecap="round" stroke-linejoin="round"/>
<path d="M14.625 4.6875V10.9375" stroke="#FB9644" stroke-width="4" stroke-linecap="round" stroke-linejoin="round"/>
<path d="M24 4.6875V10.9375" stroke="#FB9644" stroke-width="4" stroke-linecap="round" stroke-linejoin="round"/>
<path d="M33.375 4.6875V10.9375" stroke="#FB9644" stroke-width="4" stroke-linecap="round" stroke-linejoin="round"/>
</svg>
