<svg width="88" height="88" viewBox="0 0 88 88" fill="none" xmlns="http://www.w3.org/2000/svg">
<g filter="url(#filter0_bd_360_729)">
<rect x="14" y="12" width="60" height="60" rx="8" fill="url(#paint0_linear_360_729)" shape-rendering="crispEdges"/>
<rect x="14.5" y="12.5" width="59" height="59" rx="7.5" stroke="white" shape-rendering="crispEdges"/>
</g>
<g clip-path="url(#clip0_360_729)">
<path fill-rule="evenodd" clip-rule="evenodd" d="M38.063 47.1648C39.5509 51.5402 45.76 51.7007 47.154 47.1648C47.5652 47.5052 48.0333 47.7702 48.5368 47.9475C48.3065 48.3077 48.1022 48.6839 47.9256 49.0732C47.4084 50.2261 47.1517 51.4789 47.1736 52.7423C47.1956 54.0058 47.4958 55.2488 48.0528 56.3831H27C27.5531 53.6726 27.2074 51.3743 29.7436 49.9555C31.5552 48.9432 36.4035 48.6445 38.063 47.1648ZM60.7587 53.5261C60.9073 53.7674 60.9876 54.0447 60.991 54.3281C60.991 55.8078 58.7009 57.0081 55.8799 57.0081C53.0588 57.0081 50.7716 55.8078 50.7716 54.3281C50.7758 54.0448 50.856 53.7678 51.0039 53.5261C51.6538 54.6158 53.5926 55.404 55.8799 55.404C58.1672 55.404 60.1087 54.6158 60.7587 53.5261ZM57.7163 46.7776L57.6555 47.4442L55.147 47.2257C55.3553 47.4908 55.5027 47.7987 55.5784 48.1273L54.9727 48.072C54.9141 47.8616 54.8206 47.6624 54.6961 47.4829C54.5732 47.2789 54.3921 47.1161 54.1762 47.0155L54.2232 46.4623L57.7108 46.7638L57.7163 46.7776ZM55.8688 45.7377C58.1893 45.7377 60.07 46.4762 60.07 47.3972C60.07 48.3182 58.1893 49.0566 55.8688 49.0566C53.5484 49.0566 51.6704 48.3154 51.6704 47.3972C51.6704 46.4789 53.5511 45.7377 55.8688 45.7377ZM55.8688 45.1846C58.6899 45.1846 60.9799 46.3849 60.9799 47.8646C60.9799 49.3443 58.6899 50.5418 55.8688 50.5418C53.0478 50.5418 50.7605 49.3415 50.7605 47.8646C50.7605 46.3877 53.0478 45.1846 55.8688 45.1846V45.1846ZM60.7642 50.3786C60.9026 50.6115 60.977 50.8767 60.9799 51.1475C60.9799 52.6244 58.6899 53.8248 55.8688 53.8248C53.0478 53.8248 50.766 52.6217 50.766 51.1447C50.766 50.8735 50.8406 50.6075 50.9818 50.3759C51.6096 51.4822 53.5622 52.2842 55.8744 52.2842C58.1865 52.2842 60.1391 51.4766 60.7697 50.3759L60.7642 50.3786ZM36.9207 38.1043C36.6724 38.1013 36.4278 38.1653 36.2127 38.2896C36.1244 38.3471 36.0543 38.4287 36.0108 38.5247C35.9598 38.6403 35.937 38.7664 35.9444 38.8925C35.9444 39.3184 36.1795 39.8771 36.6137 40.5215L38.0243 42.7646C38.5774 43.6607 39.1803 44.5761 39.9133 45.2537C40.6346 45.9539 41.6018 46.3432 42.6071 46.3379C43.1336 46.3478 43.6569 46.2529 44.1465 46.0587C44.636 45.8645 45.082 45.5749 45.4586 45.2067C46.2164 44.4987 46.8165 43.5251 47.3946 42.5544L48.9766 39.9463C49.2725 39.2714 49.3804 38.8206 49.3112 38.5634C49.2725 38.4057 49.0983 38.3283 48.7996 38.3145C48.7387 38.3145 48.6751 38.3145 48.6087 38.3145H48.3875C48.3471 38.3201 48.3062 38.3201 48.2658 38.3145C48.1207 38.3221 47.9752 38.3147 47.8316 38.2923L48.3847 35.8917C44.3606 36.525 41.3514 33.5353 37.095 35.297L37.4047 38.1264C37.2432 38.137 37.0809 38.1305 36.9207 38.107V38.1043ZM49.3527 37.6009C49.5353 37.647 49.7014 37.7432 49.8324 37.8785C49.9633 38.0138 50.0539 38.183 50.094 38.367C50.2073 38.8095 50.094 39.4318 49.7067 40.2864L49.6846 40.3335L48.0833 42.972C47.4665 43.987 46.8387 45.0076 46.0034 45.7903C45.5559 46.2292 45.0252 46.5743 44.4424 46.8051C43.8596 47.0359 43.2365 47.1479 42.6099 47.1344C41.4056 47.1429 40.2459 46.6792 39.3795 45.8428C38.5896 45.0551 37.9079 44.166 37.3522 43.1988L35.9444 40.9641C35.499 40.3684 35.2237 39.6629 35.1479 38.9229C35.1407 38.6713 35.1918 38.4214 35.2972 38.1928C35.4057 37.9681 35.573 37.777 35.7812 37.6396C35.8872 37.5689 36.0015 37.5113 36.1214 37.4682C36.0241 36.1309 36.0019 34.7893 36.055 33.4495C36.0812 33.1393 36.1349 32.832 36.2155 32.5313C36.6056 31.2635 37.4508 30.1849 38.5885 29.5028C39.2057 29.1126 39.8765 28.8145 40.5798 28.6178C41.0251 28.4906 40.1981 27.0634 40.6628 27.0164C42.8947 26.7896 46.504 28.8252 48.0639 30.5123C48.8438 31.3586 49.3306 32.4732 49.4468 33.9557L49.361 37.6009H49.3527Z" fill="#FB9644"/>
</g>
<defs>
<filter id="filter0_bd_360_729" x="-6" y="-8" width="100" height="100" filterUnits="userSpaceOnUse" color-interpolation-filters="sRGB">
<feFlood flood-opacity="0" result="BackgroundImageFix"/>
<feGaussianBlur in="BackgroundImage" stdDeviation="10"/>
<feComposite in2="SourceAlpha" operator="in" result="effect1_backgroundBlur_360_729"/>
<feColorMatrix in="SourceAlpha" type="matrix" values="0 0 0 0 0 0 0 0 0 0 0 0 0 0 0 0 0 0 127 0" result="hardAlpha"/>
<feOffset dy="2"/>
<feGaussianBlur stdDeviation="7"/>
<feComposite in2="hardAlpha" operator="out"/>
<feColorMatrix type="matrix" values="0 0 0 0 0 0 0 0 0 0 0 0 0 0 0 0 0 0 0.05 0"/>
<feBlend mode="normal" in2="effect1_backgroundBlur_360_729" result="effect2_dropShadow_360_729"/>
<feBlend mode="normal" in="SourceGraphic" in2="effect2_dropShadow_360_729" result="shape"/>
</filter>
<linearGradient id="paint0_linear_360_729" x1="14" y1="12" x2="71.4116" y2="72.0231" gradientUnits="userSpaceOnUse">
<stop stop-color="white" stop-opacity="0.31"/>
<stop offset="1" stop-color="white" stop-opacity="0.81"/>
</linearGradient>
<clipPath id="clip0_360_729">
<rect width="33.9854" height="30" fill="white" transform="translate(27 27)"/>
</clipPath>
</defs>
</svg>
