<svg width="80" height="80" viewBox="0 0 80 80" fill="none" xmlns="http://www.w3.org/2000/svg">
<rect width="80" height="80" fill="#FFF0E1"/>
<path d="M33.75 40L37.9167 44.1667L46.25 35.8333" stroke="#163663" stroke-width="3" stroke-linecap="round" stroke-linejoin="round"/>
<path d="M39.0005 21.25C43.8669 25.5554 50.2182 27.797 56.7089 27.5C57.6539 30.7146 57.943 34.0864 57.5591 37.415C57.1753 40.7435 56.1262 43.961 54.4743 46.8761C52.8224 49.7912 50.6014 52.3445 47.9432 54.3843C45.285 56.4241 42.2439 57.9087 39.0005 58.75C35.7572 57.9087 32.7161 56.4241 30.0579 54.3843C27.3997 52.3445 25.1787 49.7912 23.5268 46.8761C21.8749 43.961 20.8258 40.7435 20.442 37.415C20.0581 34.0864 20.3472 30.7146 21.2922 27.5C27.7829 27.797 34.1342 25.5554 39.0005 21.25" stroke="#FB9644" stroke-width="3" stroke-linecap="round" stroke-linejoin="round"/>
</svg>
