<svg width="88" height="88" viewBox="0 0 88 88" fill="none" xmlns="http://www.w3.org/2000/svg">
<g filter="url(#filter0_bd_360_720)">
<rect x="14" y="12" width="60" height="60" rx="8" fill="url(#paint0_linear_360_720)" shape-rendering="crispEdges"/>
<rect x="15" y="13" width="58" height="58" rx="7" stroke="white" stroke-width="2" shape-rendering="crispEdges"/>
</g>
<g clip-path="url(#clip0_360_720)">
<path fill-rule="evenodd" clip-rule="evenodd" d="M42.61 38.6694L41.985 35.8056C44.048 36.1914 47.0656 39.5092 48.9821 42.1362C47.6174 43.0029 46.7848 44.2505 46.7848 45.73C46.7844 45.9402 46.8016 46.15 46.8361 46.3574C45.8901 46.0255 44.8943 45.8579 43.8918 45.8618C42.5765 45.8452 41.2761 46.1414 40.0978 46.726C38.6037 47.5097 37.676 48.7597 37.676 50.2832C37.6742 50.6994 37.7461 51.1127 37.8884 51.5039C37.8615 51.582 37.8346 51.6626 37.8127 51.748C37.7239 52.0535 37.6779 52.3698 37.676 52.688C37.6751 53.0914 37.7436 53.4919 37.8786 53.872L37.8249 54.0381C37.7292 54.3549 37.6791 54.6837 37.676 55.0146C37.6737 55.7213 37.8828 56.4126 38.2765 56.9995H38.0934C35.193 56.8506 30.7082 56.8554 29.5485 53.8794C27.6467 49.0649 31.111 43.3423 34.2702 39.8388C34.677 39.3876 35.1073 38.9582 35.5593 38.5522C36.7092 37.5415 37.9494 36.355 39.4264 35.8423L37.9982 38.5034L40.0734 35.7519H41.1672L42.61 38.6694ZM47.4538 54.4311C47.5636 54.6079 47.6227 54.8114 47.6247 55.0195C47.6247 56.1035 45.9474 56.9726 43.8796 56.9726C41.8117 56.9726 40.132 56.0937 40.132 55.0195C40.1346 54.8115 40.1937 54.6081 40.3029 54.4311C40.7912 55.2295 42.2023 55.8081 43.8796 55.8081C45.5568 55.8081 46.9802 55.2295 47.4538 54.4311ZM58.2228 53.7329C58.3595 53.9528 58.4322 54.2064 58.4328 54.4653C58.4328 55.7934 56.3747 56.8725 53.8405 56.8725C51.3063 56.8725 49.2629 55.7812 49.2629 54.4531C49.263 54.1941 49.3357 53.9404 49.4728 53.7207C50.0563 54.6972 51.7971 55.4077 53.8527 55.4077C55.9084 55.4077 57.6515 54.6972 58.2472 53.7207L58.2228 53.7329ZM58.2228 50.8227C58.3589 51.0429 58.4315 51.2963 58.4328 51.5551C58.4328 52.8833 56.3747 53.9624 53.8405 53.9624C51.3063 53.9624 49.2629 52.8784 49.2629 51.5429C49.2636 51.2841 49.3363 51.0305 49.4728 50.8105C50.0563 51.7871 51.7971 52.4975 53.8527 52.4975C55.9084 52.4975 57.6515 51.7871 58.2472 50.8105L58.2228 50.8227ZM55.4982 44.7583L55.4445 45.3564L53.1935 45.1611C53.38 45.3997 53.5117 45.6764 53.5793 45.9717L53.0373 45.9228C52.9848 45.7335 52.9024 45.5539 52.7931 45.3906C52.6814 45.2086 52.5195 45.0628 52.3268 44.9707L52.3683 44.4824L55.5007 44.7534L55.4982 44.7583ZM53.8405 43.8232C55.923 43.8232 57.6125 44.4873 57.6125 45.3027C57.6125 46.1181 55.923 46.7749 53.8405 46.7749C51.758 46.7749 50.0685 46.1181 50.0685 45.31C50.0685 44.5019 51.758 43.8305 53.8405 43.8305V43.8232ZM53.8405 43.3349C56.3747 43.3349 58.4328 44.414 58.4328 45.7422C58.4328 47.0703 56.3747 48.1494 53.8405 48.1494C51.3063 48.1494 49.2629 47.0678 49.2629 45.7397C49.2629 44.4116 51.3185 43.3325 53.8527 43.3325L53.8405 43.3349ZM58.235 48.0005C58.3596 48.2097 58.4269 48.4479 58.4304 48.6914C58.4304 50.0195 56.3722 51.0986 53.8381 51.0986C51.3039 51.0986 49.2629 50.0171 49.2629 48.6889C49.2598 48.4458 49.3222 48.2063 49.4435 47.9956C50.0099 48.9868 51.7629 49.7046 53.8381 49.7046C55.9133 49.7046 57.6686 48.9721 58.2326 47.9956L58.235 48.0005ZM45.2321 49.4824L45.1882 49.9707L43.3498 49.8095C43.5018 50.0045 43.6093 50.2303 43.6647 50.4712L43.2228 50.437C43.1804 50.2821 43.1127 50.1353 43.0226 50.0024C42.9304 49.8549 42.7984 49.7364 42.6418 49.6606L42.6711 49.2602L45.2272 49.4824H45.2321ZM43.8918 48.728C45.6008 48.728 46.9704 49.27 46.9704 49.9487C46.9704 50.6274 45.591 51.1694 43.8918 51.1694C42.1926 51.1694 40.8132 50.6274 40.8132 49.9487C40.8132 49.27 42.1828 48.728 43.8918 48.728ZM43.8918 48.3276C45.9596 48.3276 47.6369 49.209 47.6369 50.2929C47.6369 51.3769 45.9596 52.2461 43.8918 52.2461C41.8239 52.2461 40.1442 51.3672 40.1442 50.2929C40.1442 49.2187 41.8117 48.3178 43.8918 48.3178V48.3276ZM47.4782 52.1362C47.5802 52.3068 47.6349 52.5014 47.6369 52.7002C47.6369 53.7817 45.9596 54.6533 43.8918 54.6533C41.8239 54.6533 40.1442 53.7719 40.1442 52.7002C40.1458 52.5014 40.2006 52.3066 40.3029 52.1362C40.7643 52.9443 42.195 53.5351 43.8918 53.5351C45.5886 53.5351 47.0168 52.9443 47.4782 52.1362ZM39.3361 31.9555C38.8918 30.6445 38.4914 29.3188 38.1545 27.976C39.4142 26.5942 44.2824 26.7773 45.6813 27.9541L44.3801 31.0327C45.0783 30.1147 45.3127 29.7387 45.7277 29.2285C45.8997 29.344 46.0629 29.4721 46.216 29.6118C46.5846 29.9463 46.9142 30.3149 46.9802 30.8325C47.0008 31.0174 46.9802 31.2047 46.9198 31.3807C46.8594 31.5567 46.7608 31.7172 46.631 31.8506L43.6696 35.3125C43.2884 35.2516 42.9134 35.1568 42.549 35.0293C42.7175 34.6313 42.9225 34.1943 43.091 33.8086L42.007 34.978C41.0363 34.7341 40.0097 34.8594 39.1262 35.3296L36.111 31.6992C35.9486 31.5212 35.8559 31.2906 35.8498 31.0498C35.8498 30.1758 37.1559 29.4214 37.8395 29.1357L39.3361 31.9555Z" fill="#FB9644"/>
</g>
<defs>
<filter id="filter0_bd_360_720" x="-6" y="-8" width="100" height="100" filterUnits="userSpaceOnUse" color-interpolation-filters="sRGB">
<feFlood flood-opacity="0" result="BackgroundImageFix"/>
<feGaussianBlur in="BackgroundImage" stdDeviation="10"/>
<feComposite in2="SourceAlpha" operator="in" result="effect1_backgroundBlur_360_720"/>
<feColorMatrix in="SourceAlpha" type="matrix" values="0 0 0 0 0 0 0 0 0 0 0 0 0 0 0 0 0 0 127 0" result="hardAlpha"/>
<feOffset dy="2"/>
<feGaussianBlur stdDeviation="7"/>
<feComposite in2="hardAlpha" operator="out"/>
<feColorMatrix type="matrix" values="0 0 0 0 0 0 0 0 0 0 0 0 0 0 0 0 0 0 0.05 0"/>
<feBlend mode="normal" in2="effect1_backgroundBlur_360_720" result="effect2_dropShadow_360_720"/>
<feBlend mode="normal" in="SourceGraphic" in2="effect2_dropShadow_360_720" result="shape"/>
</filter>
<linearGradient id="paint0_linear_360_720" x1="14" y1="12" x2="71.4116" y2="72.0231" gradientUnits="userSpaceOnUse">
<stop stop-color="white" stop-opacity="0.31"/>
<stop offset="1" stop-color="white" stop-opacity="0.81"/>
</linearGradient>
<clipPath id="clip0_360_720">
<rect width="29.4336" height="30" fill="white" transform="translate(29 27)"/>
</clipPath>
</defs>
</svg>
